<?xml version="1.0" standalone="no"?>
<!DOCTYPE svg PUBLIC "-//W3C//DTD SVG 1.1//EN" "http://www.w3.org/Graphics/SVG/1.1/DTD/svg11.dtd" >
<svg xmlns="http://www.w3.org/2000/svg">
<metadata>Generated by IcoMoon</metadata>
<defs>
<font id="icomoon" horiz-adv-x="1024">
<font-face units-per-em="1024" ascent="960" descent="-64" />
<missing-glyph horiz-adv-x="1024" />
<glyph unicode="&#x20;" horiz-adv-x="512" d="" />
<glyph unicode="&#xe900;" glyph-name="failed-icon" d="M448 134.668c0-16.976 6.743-33.253 18.747-45.257 12-12 28.278-18.743 45.253-18.743s33.253 6.743 45.253 18.743c12.004 12.004 18.747 28.281 18.747 45.257 0 16.972-6.743 33.253-18.747 45.253-12 12.004-28.278 18.747-45.253 18.747s-33.253-6.743-45.253-18.747c-12.004-12-18.747-28.281-18.747-45.253zM479.998 302.668h64.004c4.399 0 7.999 3.599 7.999 7.999v464c0 4.4-3.599 8-7.999 8h-64.004c-4.399 0-7.999-3.6-7.999-8v-464c0-4.399 3.599-7.999 7.999-7.999z" />
<glyph unicode="&#xe901;" glyph-name="about-icon" d="M512 938.667c-135.791 0-266.017-53.941-362.040-149.96-96.019-96.019-149.96-226.256-149.96-362.040 0-135.782 53.941-266.018 149.96-362.041 96.019-96.017 226.256-149.959 362.040-149.959 135.782 0 266.018 53.942 362.041 149.959 96.017 96.017 149.959 226.258 149.959 362.041-0.154 135.747-54.147 265.886-150.13 361.865-95.983 95.984-226.128 149.977-361.866 150.131l-0.005 0.004zM512-17.066c-117.688 0-230.557 46.751-313.766 129.968-83.222 83.211-129.969 196.079-129.969 313.765 0 117.683 46.75 230.557 129.969 313.766 83.213 83.222 196.082 129.969 313.766 129.969 117.686 0 230.559-46.75 313.765-129.969 83.223-83.213 129.968-196.082 129.968-313.766-0.137-117.646-46.928-230.446-130.116-313.634-83.183-83.189-195.977-129.98-313.632-130.116l0.015 0.017zM580.25 221.856h-34.13v307.207c0 9.052-3.591 17.735-9.995 24.137-6.403 6.394-15.086 9.994-24.137 9.994h-68.263c-12.197 0-23.468-6.506-29.564-17.066-6.102-10.56-6.102-23.571 0-34.133 6.095-10.569 17.366-17.075 29.564-17.075h34.133v-273.083l-34.133 0.011c-12.197 0-23.468-6.508-29.564-17.067-6.102-10.57-6.102-23.58 0-34.145 6.095-10.559 17.366-17.067 29.564-17.067h136.531c12.197 0 23.467 6.508 29.559 17.067 6.104 10.564 6.104 23.575 0 34.145-6.093 10.559-17.362 17.067-29.559 17.067l-0.006 0.006zM546.126 665.59c0-18.858-15.283-34.141-34.132-34.141s-34.133 15.283-34.133 34.141c0 18.848 15.283 34.132 34.133 34.132s34.132-15.283 34.132-34.132z" />
<glyph unicode="&#xe902;" glyph-name="arrow-up-icon" d="M512 766.292c22.622 0 40.96-18.339 40.96-40.96v-597.333c0-22.622-18.338-40.96-40.96-40.96s-40.96 18.338-40.96 40.96v597.333c0 22.621 18.338 40.96 40.96 40.96zM483.045 754.295c15.995 15.996 41.927 15.996 57.926 0l298.664-298.665c15.999-15.999 15.999-41.931 0-57.926-15.995-15.999-41.931-15.999-57.926 0l-269.701 269.702-269.705-269.702c-15.996-15.999-41.93-15.999-57.926 0-15.996 15.995-15.996 41.927 0 57.926l298.668 298.665z" />
<glyph unicode="&#xe903;" glyph-name="back-end-icon" d="M960 618.667h-896c-35.346 0-64 28.655-64 64v128c0 35.346 28.654 64 64 64h896c35.345 0 64-28.654 64-64v-128c0-35.345-28.655-64-64-64zM864 794.667c-26.51 0-48.001-21.49-48.001-48s21.491-47.999 48.001-47.999c26.51 0 48.001 21.489 48.001 47.999s-21.491 48-48.001 48zM736 794.667c-26.51 0-48.001-21.49-48.001-48s21.491-47.999 48.001-47.999c26.51 0 48.001 21.489 48.001 47.999s-21.491 48-48.001 48zM960 298.667h-896c-35.346 0-64 28.655-64 64v128c0 35.345 28.654 64 64 64h896c35.345 0 64-28.655 64-64v-128c0-35.345-28.655-64-64-64zM864 474.666c-26.51 0-48.001-21.489-48.001-47.999s21.491-47.999 48.001-47.999c26.51 0 48.001 21.489 48.001 47.999s-21.491 47.999-48.001 47.999zM736 474.666c-26.51 0-48.001-21.489-48.001-47.999s21.491-47.999 48.001-47.999c26.51 0 48.001 21.489 48.001 47.999s-21.491 47.999-48.001 47.999zM960-21.333h-896c-35.346 0-64 28.655-64 64v128c0 35.345 28.654 64 64 64h896c35.345 0 64-28.655 64-64v-128c0-35.345-28.655-64-64-64zM864 154.666c-26.51 0-48.001-21.489-48.001-47.999s21.491-47.999 48.001-47.999c26.51 0 48.001 21.489 48.001 47.999s-21.491 47.999-48.001 47.999zM736 154.666c-26.51 0-48.001-21.489-48.001-47.999s21.491-47.999 48.001-47.999c26.51 0 48.001 21.489 48.001 47.999s-21.491 47.999-48.001 47.999z" />
<glyph unicode="&#xe904;" glyph-name="checkmark-icon" d="M347.795 59.862l-332.8 332.801c-19.994 19.994-19.994 52.412 0 72.408l72.406 72.409c19.994 19.996 52.414 19.996 72.408 0l224.19-224.188 480.194 480.188c19.992 19.994 52.413 19.994 72.405 0l72.405-72.409c19.992-19.994 19.992-52.411 0-72.408l-588.798-588.801c-19.996-19.992-52.415-19.992-72.409 0v0z" />
<glyph unicode="&#xe905;" glyph-name="close-icon" d="M20.106-64.895c13.126-13.089 30.904-20.438 49.446-20.438 18.526 0 36.304 7.349 49.43 20.438l396.399 396.27 396.401-396.27c18.167-13.282 41.623-17.022 63.012-10.047 21.402 6.975 38.141 23.823 44.972 45.267 6.813 21.444 2.909 44.857-10.505 62.928l-396.402 396.265 396.402 396.268c14.083 18.098 18.396 41.95 11.547 63.82-6.849 21.886-23.992 39.024-45.887 45.871-21.877 6.845-45.737 2.537-63.837-11.544l-396.402-396.268-396.398 396.268c-18.104 14.081-41.964 18.39-63.841 11.544-21.893-6.845-39.037-23.983-45.886-45.871-6.848-21.869-2.537-45.721 11.548-63.82l396.399-396.268-396.399-396.265c-12.882-13.089-20.104-30.72-20.104-49.074 0-18.36 7.222-35.985 20.104-49.074h0.002z" />
<glyph unicode="&#xe906;" glyph-name="company-icon" d="M938.422-21.333h-40.227v912c0 26.51-21.615 48-48.275 48h-675.84c-26.662 0-48.274-21.49-48.274-48v-912h-40.229c-13.33 0-24.137-10.748-24.137-23.998v-40.002h901.12v40.002c0 13.251-10.809 23.998-24.138 23.998zM318.903 786.667c0 13.254 10.808 24 24.137 24h80.457c13.33 0 24.137-10.746 24.137-24v-80c0-13.254-10.807-24-24.137-24h-80.457c-13.33 0-24.137 10.746-24.137 24v80zM318.903 594.667c0 13.254 10.808 24 24.137 24h80.457c13.33 0 24.137-10.746 24.137-24v-80.001c0-13.251-10.807-23.998-24.137-23.998h-80.457c-13.33 0-24.137 10.748-24.137 23.998v80.001zM423.497 298.667h-80.457c-13.33 0-24.137 10.748-24.137 23.998v80.003c0 13.251 10.808 23.998 24.137 23.998h80.457c13.33 0 24.137-10.748 24.137-23.998v-80.003c0-13.251-10.807-23.998-24.137-23.998zM576.365-21.333h-128.73v168.002c0 13.251 10.807 23.998 24.139 23.998h80.454c13.332 0 24.138-10.748 24.138-23.998v-168.002zM705.098 322.665c0-13.251-10.809-23.998-24.138-23.998h-80.458c-13.328 0-24.138 10.748-24.138 23.998v80.003c0 13.251 10.809 23.998 24.138 23.998h80.458c13.328 0 24.138-10.748 24.138-23.998v-80.003zM705.098 514.665c0-13.251-10.809-23.998-24.138-23.998h-80.458c-13.328 0-24.138 10.748-24.138 23.998v80.001c0 13.254 10.809 24 24.138 24h80.458c13.328 0 24.138-10.746 24.138-24v-80.001zM705.098 706.667c0-13.254-10.809-24-24.138-24h-80.458c-13.328 0-24.138 10.746-24.138 24v80c0 13.254 10.809 24 24.138 24h80.458c13.328 0 24.138-10.746 24.138-24v-80z" />
<glyph unicode="&#xe907;" glyph-name="email-icon" d="M1004.6 557.067c7.801 6.2 19.4 0.4 19.4-9.4v-409c0-53.001-42.999-96-96-96h-832c-53 0-96 42.999-96 96v408.8c0 10 11.4 15.6 19.4 9.4 44.8-34.8 104.2-79 308.2-227.201 42.2-30.799 113.4-95.6 184.4-95.199 71.401-0.6 143.998 65.601 184.599 95.199 203.999 148.201 263.201 192.601 308.001 227.401zM512 298.667c46.401-0.801 113.199 58.401 146.8 82.8 265.402 192.6 285.598 209.4 346.801 257.4 11.599 9 18.399 23 18.399 37.8v38c0 53-42.999 96-96 96h-832c-53 0-96-43-96-96v-38c0-14.8 6.8-28.6 18.4-37.8 61.2-47.8 81.4-64.8 346.8-257.4 33.6-24.399 100.399-83.6 146.8-82.8z" />
<glyph unicode="&#xe908;" glyph-name="email-icon_outline" d="M170.666 716.801c-18.656 0-34.133-15.477-34.133-34.133v-512.001c0-18.657 15.477-34.135 34.133-34.135h682.669c18.652 0 34.13 15.478 34.13 34.135v512.001c0 18.656-15.478 34.133-34.13 34.133h-682.669zM34.133 682.668c0 75.21 61.323 136.533 136.533 136.533h682.669c75.208 0 136.53-61.323 136.53-136.533v-512.001c0-75.208-61.322-136.535-136.53-136.535h-682.669c-75.21 0-136.533 61.327-136.533 136.535v512.001zM43.389 712.029c16.216 23.165 48.14 28.799 71.306 12.583l397.305-278.114 397.307 278.114c23.163 16.216 55.091 10.582 71.306-12.583s10.583-55.090-12.585-71.306l-426.665-298.669c-17.628-12.339-41.095-12.339-58.724 0l-426.666 298.669c-23.165 16.216-28.799 48.141-12.583 71.306z" />
<glyph unicode="&#xe909;" glyph-name="facebook-icon" d="M771.524 362.667l30.972 185.32h-193.67v120.26c0 50.7 27.055 100.12 113.794 100.12h88.047v157.78c0 0-79.902 12.52-156.292 12.52-159.496 0-263.749-88.76-263.749-249.44v-141.24h-177.292v-185.32h177.292v-448h218.2v448h162.699z" />
<glyph unicode="&#xe90a;" glyph-name="Star" d="M511.991 938.667l114.951-353.784h371.99l-300.945-218.65 114.951-353.783-300.946 218.65-300.945-218.65 114.95 353.783-300.946 218.65h371.99l114.951 353.784z" />
<glyph unicode="&#xe90b;" glyph-name="front-end-icon" d="M446.242 12.583l-97.601 28.686c-10.24 2.918-15.999 13.776-13.12 24.149l218.4 762.048c2.881 10.372 13.6 16.207 23.84 13.29l97.601-28.686c10.24-2.917 15.999-13.776 13.12-24.148l-218.4-762.049c-3.040-10.372-13.6-16.368-23.84-13.289zM263.841 194.424l69.6 75.2c7.36 7.941 6.88 20.582-1.28 27.876l-144.96 129.169 144.96 129.169c8.16 7.293 8.799 19.934 1.28 27.876l-69.6 75.2c-7.2 7.779-19.359 8.266-27.2 0.81l-230.56-218.793c-8.16-7.616-8.16-20.745 0-28.361l230.56-218.956c7.841-7.454 20-7.131 27.2 0.81zM787.361 193.451l230.561 218.956c8.16 7.616 8.16 20.745 0 28.361l-230.561 219.118c-7.68 7.293-19.839 6.969-27.2-0.81l-69.6-75.2c-7.36-7.941-6.88-20.582 1.28-27.876l144.96-129.331-144.96-129.169c-8.16-7.293-8.799-19.934-1.28-27.876l69.6-75.2c7.2-7.941 19.359-8.264 27.2-0.973z" />
<glyph unicode="&#xe90c;" glyph-name="gear-icon" d="M688.437 315.189c10.715 17.648 18.692 37.183 23.731 57.76h56.503v99.984h-56.503c-5.039 20.588-13.026 39.908-23.731 57.557l39.696 39.91-70.575 70.786-39.908-39.908c-17.648 10.715-36.97 18.905-57.761 23.944v56.29h-99.982v-56.29c-20.588-5.039-39.908-13.229-57.557-23.944l-39.91 39.908-70.788-70.786 39.91-39.91c-10.715-17.648-18.907-36.97-23.944-57.557h-56.29v-99.984h56.29c5.037-20.586 13.229-40.121 23.944-57.76l-39.91-39.698 70.788-70.786 39.91 39.908c17.648-10.715 36.97-18.905 57.557-23.944v-56.29h99.982v56.29c20.791 5.039 40.123 13.229 57.761 23.944l39.908-39.908 70.575 70.786-39.696 39.698zM509.893 311.823c-61.338 0-111.122 49.782-111.122 111.122 0 61.338 49.782 111.124 111.122 111.124 61.542 0 111.124-49.782 111.124-111.124-0.010-61.338-49.579-111.122-111.124-111.122zM817.215 726.039c-70.158 70.159-160.266 113.007-257.313 123.724l49.995 39.696-26.045 32.975-105.862-83.811 83.812-105.862 32.955 26.051-38.855 49.153c87.383-9.66 168.458-48.314 231.682-111.539 73.513-73.513 114.062-171.406 114.062-275.584 0-19.96-1.471-39.908-4.622-59.656l41.592-6.305c3.365 21.845 5.037 43.902 5.037 65.952 0 115.318-44.946 223.712-126.448 305.217l0.010-0.010zM731.711 99.044l23.731-34.658c18.064 12.396 35.501 26.254 51.669 41.379l-28.778 30.665c-14.69-13.655-30.23-26.254-46.622-37.386v0zM661.774 61.241l16.179-38.855c20.376 8.405 40.121 18.481 59.028 30.037l-21.845 35.917c-17.020-10.502-34.871-19.535-53.362-27.097v-0.002zM585.722 38.341l7.775-41.167c21.632 4.198 43.063 9.874 63.852 17.438l-14.070 39.493c-18.692-6.944-38.235-12.195-57.557-15.764v0zM877.054 284.317l39.28-14.698c7.775 20.588 13.867 42.008 18.276 63.649l-41.167 8.405c-3.994-19.342-9.458-38.662-16.392-57.356h0.002zM841.576 213.094l35.501-22.473c11.758 18.692 22.26 38.437 30.878 58.602l-38.439 16.595c-7.775-18.066-17.231-35.917-27.936-52.724h-0.004zM792.413 150.512l30.251-29.196c15.336 15.754 29.407 32.975 42.22 51.040l-34.243 24.157c-11.555-16.169-24.369-31.718-38.225-46.001h-0.004zM424.834 86.64l41.594-52.51c-86.752 10.086-167.2 48.528-229.796 111.122-73.513 73.513-114.061 171.406-114.061 275.586 0 19.958 1.47 39.908 4.622 59.443l-41.593 6.305c-3.365-21.845-5.038-43.902-5.038-65.953 0-115.318 44.947-223.703 126.449-305.217 68.262-68.261 155.644-110.484 249.763-122.455l-46.844-37.185 26.045-32.975 105.862 83.812-83.812 105.862-33.191-25.836zM362.226 780.651l-16.179 38.855c-20.376-8.403-40.121-18.693-59.028-30.036l21.845-35.916c17.020 10.289 34.871 19.534 53.362 27.095v0.002zM438.278 803.551l-7.776 41.167c-21.632-4.197-43.063-9.874-63.852-17.436l14.070-39.493c18.692 6.731 38.237 11.981 57.559 15.763v-0.001zM292.289 742.849l-23.731 34.658c-18.064-12.397-35.5-26.254-51.668-41.38l28.779-30.665c14.689 13.442 30.229 26.043 46.621 37.386v0zM146.947 557.576l-39.28 14.698c-7.775-20.588-13.867-42.010-18.277-63.651l41.167-8.403c3.994 19.332 9.457 38.662 16.391 57.356h-0.001zM231.586 691.381l-30.249 29.196c-15.337-15.967-29.621-32.977-42.221-51.040l34.243-24.157c11.556 16.179 24.369 31.516 38.226 46.001h0.003zM182.225 628.799l-35.5 22.473c-11.759-18.692-22.261-38.439-30.878-58.602l38.439-16.595c7.978 18.064 17.436 35.917 27.937 52.724h0.002z" />
<glyph unicode="&#xe90d;" glyph-name="home-icon" d="M511.99 836.662c11.456 0 21.269-3.132 27.807-9.387l356.601-289.504c26.175-20.347 50.711-73.55 50.711-104.847v-391.224c0-12.516-11.457-25.037-26.18-25.037h-204.459c-13.090 0-26.175 10.957-26.175 25.037v147.103c0 93.901-80.156 170.571-179.945 170.571-98.153 0-178.298-76.681-178.298-170.571v-147.103c0-12.516-11.456-25.037-26.175-25.037h-202.833c-13.088 0-26.175 10.957-26.175 25.037v391.224c0 32.868 24.532 84.498 50.707 104.847l356.602 289.504c6.55 6.255 16.363 9.387 27.819 9.387h-0.007zM511.997 910.212c-27.807 0-57.259-9.388-78.515-26.602l-354.967-289.504c-42.528-34.427-78.515-107.98-78.515-161.183v-391.223c0-53.202 45.802-98.588 103.058-98.588h204.474c55.614 0 103.058 43.816 103.058 98.588v147.103c0 53.202 45.802 98.594 103.058 98.594 55.611 0 103.056-43.822 103.056-98.594v-147.103c0-53.202 45.801-98.588 101.416-98.588l202.82 0.011c55.615 0 103.060 43.816 103.060 98.588v391.223c0 53.204-34.355 126.753-78.512 161.183l-354.97 289.504c-21.259 17.214-50.707 26.602-78.515 26.602l-0.006-0.011z" />
<glyph unicode="&#xe90e;" glyph-name="instagram-icon" d="M512.116 689.208c-145.292 0-262.484-117.218-262.484-262.541s117.192-262.54 262.484-262.54c145.288 0 262.482 117.217 262.482 262.54s-117.195 262.541-262.482 262.541zM512.116 255.98c-93.892 0-170.649 76.546-170.649 170.687s76.529 170.686 170.649 170.686c94.119 0 170.647-76.546 170.647-170.686s-76.76-170.687-170.647-170.687v0zM846.554 699.947c0-34.046-27.412-61.237-61.222-61.237-34.037 0-61.222 27.42-61.222 61.237s27.412 61.237 61.222 61.237c33.81 0 61.222-27.42 61.222-61.237zM1020.403 637.796c-3.882 82.030-22.617 154.691-82.699 214.557-59.851 59.866-132.497 78.602-214.506 82.715-84.525 4.798-337.87 4.798-422.394 0-81.783-3.884-154.428-22.621-214.509-82.487s-78.585-132.527-82.697-214.557c-4.797-84.543-4.797-337.942 0-422.489 3.884-82.027 22.616-154.691 82.697-214.555s132.498-78.603 214.509-82.717c84.524-4.795 337.87-4.795 422.394 0 82.009 3.887 154.655 22.621 214.506 82.717 59.855 59.864 78.585 132.528 82.699 214.555 4.795 84.547 4.795 337.717 0 422.26v0zM911.204 124.827c-17.818-44.789-52.313-79.289-97.316-97.342-67.393-26.731-227.301-20.565-301.773-20.565-74.474 0-234.614-5.939-301.776 20.565-44.775 17.822-79.27 52.326-97.317 97.342-26.728 67.406-20.56 227.35-20.56 301.84s-5.94 234.664 20.56 301.842c17.819 44.785 52.314 79.288 97.317 97.339 67.391 26.734 227.302 20.565 301.776 20.565 74.472 0 234.612 5.941 301.773-20.565 44.776-17.822 79.271-52.325 97.316-97.339 26.731-67.406 20.56-227.352 20.56-301.842s6.171-234.665-20.56-301.84z" />
<glyph unicode="&#xe90f;" glyph-name="left-curved-arrow" d="M488.074 760.321c13.949-1.998 24.166-12.936 23.997-25.693v-105.568c142.131-9.792 267.834-46.396 359.054-124.436 97.151-83.083 152.874-210.187 152.874-386.529-0.178-11.228-8.392-21.045-20.297-24.26-11.896-3.219-24.732 0.913-31.695 10.2-103.918 140.796-268.974 234.893-459.954 243.654v-101.153c0.022-9.269-5.485-17.835-14.412-22.403-8.931-4.577-19.892-4.443-28.69 0.329l-455.053 244.043c-8.611 4.632-13.899 13.017-13.899 22.074s5.288 17.451 13.899 22.083l455.053 244.041c5.694 3.198 12.471 4.479 19.104 3.61l0.018 0.006zM455.19 689.271l-370.609-198.694 370.609-198.695v83.092c0 14.19 12.738 25.684 28.44 25.693 189.752 0 357.861-78.155 476.819-199.894-14.563 120.584-59.419 207.508-128.432 266.517-84.164 71.983-204.729 106.958-349.732 113.191h0.009c-15.186 0.645-27.123 11.951-27.114 25.684l0.009 83.106z" />
<glyph unicode="&#xe910;" glyph-name="linkedin-icon" d="M229.211-85.333h-212.297v683.672h212.297v-683.672zM122.949 691.599c-67.886 0-122.949 56.23-122.949 124.117 0 32.609 12.953 63.882 36.011 86.94s54.33 36.012 86.938 36.012c32.608 0 63.88-12.954 86.938-36.012s36.011-54.331 36.011-86.94c0-67.887-55.086-124.117-122.949-124.117zM1023.773-85.333h-211.843v332.809c0 79.315-1.598 181.030-110.374 181.030-110.378 0-127.292-86.172-127.292-175.318v-338.521h-212.070v683.672h203.61v-93.259h2.974c28.343 53.715 97.574 110.403 200.869 110.403 214.857 0 254.353-141.489 254.353-325.266v-375.55h-0.227z" />
<glyph unicode="&#xe911;" glyph-name="mobile-menu-icon" d="M0 491.033h454.443v447.634h-454.443v-447.634zM59.036 880.153h336.414v-330.611h-336.414v330.611zM572.502 938.667v-447.634h451.498v447.634h-451.498zM967.928 549.547h-336.411v330.611h333.463l2.948-330.611zM0-85.338h454.443v447.639h-454.443v-447.639zM59.036 303.787h336.414v-330.612h-336.414v330.612zM572.502-85.338h451.498v447.639h-451.498v-447.639zM631.517 303.787h333.463v-330.612h-333.463v330.612z" />
<glyph unicode="&#xe912;" glyph-name="moon-icon" d="M884.275 181.321c-7.953-0.435-15.462-0.435-23.415-0.435-128.58 0-249.651 49.126-340.672 138.688s-140.951 208.683-140.951 335.197c0 72.169 16.349 141.731 46.836 204.77 13.698 27.825 30.047 54.345 49.046 79.126-33.581-3.478-65.836-10.434-97.208-19.999-206.788-64.344-356.577-254.333-356.577-479.103 0-277.372 228.439-502.144 510.345-502.144 155.972 0 295.159 68.693 388.83 176.947 21.21 24.781 40.653 51.738 56.559 80.431-30.046-7.39-60.975-12.173-92.791-13.478zM531.678 6.985c-242.58 0-439.648 193.899-439.648 432.58 0 169.991 99.859 316.939 244.788 387.804-18.558-54.345-28.279-112.167-28.279-172.598 0-286.506 225.344-521.275 510.784-542.144-76.881-66.082-177.626-105.643-287.646-105.643z" />
<glyph unicode="&#xe913;" glyph-name="phone-icon" d="M994.779 215.062l-224 96c-9.57 4.077-20.201 4.938-30.301 2.448s-19.121-8.192-25.698-16.249l-99.198-121.2c-155.688 73.407-280.978 198.698-354.382 354.381l121.2 99.2c8.073 6.567 13.788 15.584 16.278 25.689s1.62 20.745-2.478 30.311l-96 224c-4.498 10.312-12.453 18.731-22.493 23.806s-21.537 6.487-32.507 3.994l-208-48c-10.577-2.442-20.013-8.398-26.769-16.894s-10.433-19.032-10.431-29.886c0-513.001 415.8-928 928-928 10.859-0.005 21.397 3.668 29.901 10.426 8.499 6.754 14.457 16.193 16.901 26.773l47.998 208.002c2.476 11.022 1.038 22.565-4.077 32.638-5.115 10.077-13.582 18.055-23.943 22.561v0z" />
<glyph unicode="&#xe914;" glyph-name="quote-icon" d="M472.615 390.095v-219.428c0-60.573-52.923-109.714-118.154-109.714h-236.307c-65.231 0-118.154 49.141-118.154 109.714v402.286c0 161.142 141.538 292.57 315.076 292.57h39.385c21.539 0 39.385-16.571 39.385-36.571v-73.143c0-20-17.846-36.572-39.385-36.572h-39.385c-86.768 0-157.538-65.712-157.538-146.284v-18.286c0-30.286 26.461-54.858 59.077-54.858h137.845c65.231 0 118.154-49.143 118.154-109.714zM1024 390.095v-219.428c0-60.573-52.923-109.714-118.154-109.714h-236.307c-65.231 0-118.154 49.141-118.154 109.714v402.286c0 161.142 141.539 292.57 315.076 292.57h39.385c21.539 0 39.385-16.571 39.385-36.571v-73.143c0-20-17.846-36.572-39.385-36.572h-39.385c-86.768 0-157.537-65.712-157.537-146.284v-18.286c0-30.286 26.461-54.858 59.076-54.858h137.846c65.231 0 118.154-49.143 118.154-109.714z" />
<glyph unicode="&#xe915;" glyph-name="right-curved-arrow" d="M535.923 792.097c-13.946-2.188-24.166-14.168-23.996-28.14v-115.622c-142.131-10.724-267.83-50.814-359.053-136.287-97.151-90.996-152.873-230.205-152.873-423.341 0.179-12.298 8.393-23.050 20.297-26.57 11.895-3.525 24.732 1 31.695 11.171 103.916 154.205 268.973 257.263 459.954 266.859v-110.787c-0.020-10.152 5.486-19.534 14.414-24.537 8.928-5.013 19.89-4.866 28.692 0.361l455.051 267.285c8.611 5.073 13.897 14.257 13.897 24.177s-5.286 19.113-13.897 24.186l-455.051 267.284c-5.695 3.503-12.473 4.906-19.11 3.954l-0.020 0.007zM568.808 714.281l370.61-217.617-370.61-217.619v91.005c0 15.542-12.737 28.13-28.438 28.14-189.75 0-357.861-85.598-476.817-218.932 14.563 132.068 59.414 227.271 128.429 291.9 84.166 78.839 204.728 117.144 349.734 123.971h-0.010c15.189 0.707 27.121 13.089 27.112 28.13l-0.010 91.021z" />
<glyph unicode="&#xe916;" glyph-name="rocket-icon" d="M129.133 492.715l118.778-49.259c-13.392-33.813-24.070-68.634-31.942-104.141l-4.507-20.48 170.293-170.394 20.478 4.408c35.507 7.871 70.328 18.551 104.143 31.944l49.25-118.779c0.98-2.392 3.1-4.129 5.637-4.629 2.537-0.493 5.15 0.321 6.956 2.171l74.452 74.442c24.564 24.567 37.585 58.38 35.835 93.079l-2.658 47.821c137.83 101.786 277.285 280.264 315.283 591.762 2.185 15.829-3.149 31.771-14.422 43.107-11.264 11.329-27.178 16.743-43.020 14.643-311.405-38.292-489.984-177.865-591.763-315.283l-47.721 2.458c-34.623 1.885-68.43-10.95-93.079-35.328l-74.443-74.442c-2.1-1.787-3.086-4.557-2.579-7.273 0.507-2.707 2.429-4.936 5.036-5.834l-0.007 0.007zM606.72 674.163c17.299 17.243 40.734 26.908 65.157 26.88 24.427-0.030 47.842-9.751 65.101-27.029 17.257-17.278 26.957-40.709 26.957-65.129s-9.7-47.849-26.957-65.129c-17.257-17.278-40.671-27.008-65.101-27.027-24.42-0.030-47.858 9.635-65.157 26.878-17.359 17.292-27.108 40.778-27.108 65.278s9.751 47.986 27.108 65.278v0zM106.897 134.827c-19.714 6.921-40.878 8.613-61.443 4.922-3.714-0.808-7.579 0.349-10.236 3.070-3.321 3.307-4.221 8.336-2.257 12.593 21.815 46.899 79.671 141.21 184.43 65.024 1.107-0.987 1.743-2.409 1.743-3.887 0-1.487-0.636-2.907-1.743-3.894-28.443-22.4-44.522-57-43.315-93.186 0.157-4.343 3.643-7.827 7.986-7.985 36.028-1.45 70.606 14.278 93.186 42.394 0.994 1.215 2.479 1.922 4.042 1.922 1.571 0 3.058-0.707 4.049-1.922 14.543-17.308 54.579-73.828 10.245-128.407h-0.007c-19.358-23.273-47.095-37.981-77.209-40.965-43.008-4.606-122.472-18.634-154.929-55.708-2.657-3.142-6.829-4.571-10.857-3.714-4.021 0.859-7.25 3.859-8.4 7.815-11.464 39.114-29.286 126.564 64.722 201.93l-0.006-0.002z" />
<glyph unicode="&#xe917;" glyph-name="services-icon" d="M750.911 938.011c-81.044 5.396-163.442-22.505-225.127-84.162-77.445-77.863-100.411-188.58-71.595-287.608l-413.33-413.153c-54.478-54.454-54.478-143.121 0-197.581 54.479-54.454 142.735-54.454 197.214 0l413.328 413.178c99.055-28.809 209.823-6.303 287.71 71.562 81.948 82.363 104.465 201.631 67.988 304.687-5.404 15.753-29.269 21.149-41.421 9.454l-125.178-125.565c-35.118-35.105-90.954-35.105-126.071 0-35.123 35.105-35.123 90.914 0 126.019l125.178 125.565c11.708 12.147 6.298 35.556-9.461 41.404-25.663 9.454-52.679 14.85-79.246 16.205l0.011-0.006zM747.765 887.596c7.657-0.452 15.309-3.154 23.41-4.501l-92.752-92.261c-54.482-54.455-54.482-143.119 0-197.581 54.477-54.455 143.178-54.455 197.66 0l92.302 92.261c12.163-74.256-8.101-151.677-65.291-208.833-67.988-68.409-166.144-86.865-251.244-56.705-9.006 3.598-19.809 0.904-26.561-5.848l-422.794-422.61c-35.12-35.106-90.953-35.106-126.073 0s-35.12 90.459 0 126.020l422.793 422.609c6.754 6.752 9.006 17.1 6.302 26.102-30.615 85.067-12.161 183.636 56.287 251.589 50.879 51.309 118.866 74.256 185.956 69.756l0.006 0.001z" />
<glyph unicode="&#xe918;" glyph-name="straight-arrow-icon" d="M772.826 421.346l-215.232 215.214c-4.714 4.714-11.793 6.080-17.999 3.6-6.207-2.606-10.177-8.566-10.177-15.269v-99.299l-413.813 0.007c-9.063-0.126-16.508-7.452-16.508-16.635v-198.597c0-9.183 7.446-16.51 16.508-16.51h413.697v-99.295c0-6.702 3.97-12.783 10.177-15.271 2.107-0.869 11.046-3.726 17.999 3.601l215.099 215.099c6.696 6.458 6.696 16.879 0.244 23.337l0.003 0.017zM562.437 234.538v75.839c0 9.183-7.445 16.51-16.506 16.51h-413.697v165.581h413.697c9.183 0 16.506 7.445 16.506 16.51v75.839l175.266-175.134-175.266-175.144zM888.64 421.319l-215.099 215.215c-6.458 6.457-16.879 6.457-23.456 0-6.458-6.457-6.458-16.88 0-23.457l203.439-203.438-203.439-203.442c-6.458-6.455-6.458-16.879 0-23.456 3.227-3.227 14.399-8.195 23.456 0l215.099 215.099c6.451 6.577 6.451 16.998 0 23.456v0.023z" />
<glyph unicode="&#xe919;" glyph-name="sun-icon" d="M0 426.894c0 11.745 4.065 21.682 12.196 29.812 8.432 7.827 18.068 11.745 28.909 11.745h98.47c11.142 0 20.402-4.065 27.779-12.199 7.378-8.13 11.067-17.916 11.067-29.358s-3.689-21.157-11.067-29.135c-7.378-7.983-16.637-11.972-27.779-11.972h-98.47c-11.142 0-20.778 4.065-28.909 12.199-8.131 8.13-12.196 17.764-12.196 28.908zM137.768 93.088c0 11.144 3.764 20.93 11.292 29.362l70.916 68.657c7.227 7.529 16.713 11.291 28.457 11.291 11.443 0 21.004-3.611 28.683-10.841 7.679-7.226 11.518-16.411 11.518-27.55 0-11.745-3.915-21.985-11.744-30.716l-68.658-68.661c-19.574-15.356-39.298-15.356-59.173 0-7.529 8.13-11.292 17.617-11.292 28.458zM137.768 760.246c0 11.142 3.764 20.929 11.292 29.36 9.335 7.83 19.574 11.744 30.716 11.744 10.54 0 20.025-3.915 28.457-11.744l68.658-70.916c7.83-7.227 11.744-16.713 11.744-28.457 0-11.443-3.84-21.004-11.518-28.683s-17.24-11.518-28.683-11.518c-11.744 0-21.23 3.915-28.457 11.744l-70.916 68.658c-7.529 8.131-11.292 18.068-11.292 29.812zM260.63 426.894c0 44.869 11.292 86.65 33.877 125.345s53.225 69.335 91.92 91.92c38.696 22.585 80.476 33.877 125.345 33.877 33.73 0 66.101-6.7 97.115-20.101 31.018-13.4 57.745-31.318 80.179-53.752s40.274-49.16 53.524-80.177c13.25-31.017 19.875-63.389 19.875-97.114 0-45.172-11.215-87.027-33.65-125.574-22.435-38.542-52.927-69.035-91.47-91.47-38.547-22.435-80.402-33.65-125.574-33.65-45.167 0-87.026 11.215-125.571 33.65s-69.11 52.927-91.695 91.47c-22.585 38.547-33.877 80.402-33.877 125.574zM342.387 426.894c0-46.979 16.487-87.102 49.461-120.378s72.95-49.913 119.925-49.913c46.979 0 87.102 16.638 120.378 49.913s49.913 73.399 49.913 120.378c0 46.374-16.638 85.972-49.913 118.796s-73.399 49.235-120.378 49.235c-46.672 0-86.574-16.412-119.699-49.235s-49.687-72.422-49.687-118.796zM470.67 52.435c0 11.442 3.989 21.081 11.967 28.908 7.983 7.831 17.693 11.745 29.135 11.745 11.745 0 21.531-3.913 29.362-11.745 7.827-7.827 11.745-17.466 11.745-28.908v-95.762c0-11.74-3.989-21.678-11.972-29.812-7.978-8.13-17.693-12.195-29.135-12.195s-21.152 4.065-29.135 12.195c-7.978 8.134-11.967 18.071-11.967 29.812v95.762zM470.67 799.092v98.47c0 11.142 4.065 20.778 12.195 28.909s17.769 12.196 28.908 12.196c11.144 0 20.778-4.065 28.908-12.196 8.134-8.131 12.199-17.767 12.199-28.909v-98.47c0-11.142-3.989-20.402-11.972-27.779-7.978-7.378-17.693-11.067-29.135-11.067s-21.152 3.689-29.135 11.067c-7.978 7.378-11.967 16.637-11.967 27.779zM736.719 164.007c0 11.139 3.615 20.173 10.841 27.1 7.226 7.529 16.264 11.291 27.1 11.291 11.745 0 21.384-3.762 28.912-11.291l70.465-68.657c7.827-8.432 11.745-18.218 11.745-29.362s-3.918-20.627-11.745-28.458c-19.273-15.057-38.547-15.057-57.82 0l-68.657 68.661c-7.226 8.13-10.841 18.365-10.841 30.716zM736.719 690.233c0 12.045 3.615 21.531 10.841 28.457l68.657 70.916c8.432 7.83 17.92 11.744 28.458 11.744 11.442 0 21.157-4.065 29.135-12.196s11.972-17.767 11.972-28.909c0-12.045-3.918-21.983-11.745-29.812l-70.465-68.658c-8.735-7.83-18.37-11.744-28.912-11.744-10.837 0-19.875 3.84-27.1 11.518s-10.841 17.24-10.841 28.683zM845.579 426.894c0 11.442 3.913 21.379 11.745 29.812 7.827 7.827 17.012 11.745 27.555 11.745h97.565c11.144 0 20.854-4.141 29.135-12.422s12.422-17.996 12.422-29.135c0-11.144-4.141-20.778-12.422-28.908-8.281-8.134-17.991-12.199-29.135-12.199h-97.565c-11.144 0-20.48 3.989-28.009 11.972-7.529 7.978-11.291 17.693-11.291 29.135z" />
<glyph unicode="&#xe91a;" glyph-name="team-icon" d="M512.003 438.268c76.8 0 139.636 62.67 139.636 139.266s-62.836 139.266-139.636 139.266c-76.8 0-139.636-62.67-139.636-139.266s62.836-139.266 139.636-139.266zM512.003 670.385c51.2 0 93.092-41.78 93.092-92.847s-41.892-92.847-93.092-92.847c-51.203 0-93.095 41.78-93.095 92.847s41.892 92.847 93.095 92.847zM779.643 238.654c0 85.883-67.488 157.833-152.439 163.639l-10.472 1.158-6.98-6.963c-26.767-25.529-61.676-39.455-97.748-39.455-36.069 0-70.977 13.926-97.744 39.455l-6.98 6.963h-10.472c-84.944-6.963-152.44-78.914-152.44-164.796v-102.124h535.263l0.014 102.124zM733.092 182.948h-442.167v55.706c0 58.030 43.052 107.933 100.076 116.053 33.741-27.853 75.629-44.097 121.013-44.097 45.38 0 87.272 16.251 121.020 45.264 57.016-9.288 100.076-58.033 100.076-116.053l-0.017-56.873zM930.905 531.114c0 63.828-52.364 116.053-116.361 116.053s-116.361-52.225-116.361-116.053c0-63.828 52.364-116.052 116.361-116.052s116.361 52.225 116.361 116.052zM744.724 531.114c0 38.298 31.42 69.633 69.82 69.633s69.816-31.335 69.816-69.633c0-38.298-31.416-69.633-69.816-69.633s-69.82 31.335-69.82 69.633zM907.636 380.25h-22.108l-6.98-6.964c-17.456-18.572-38.4-27.853-63.997-27.853v-46.418c34.908 0 66.324 11.602 90.764 34.816l2.321-0.007c38.4 0 69.816-31.338 69.816-69.635v-34.816h-162.901v-46.418h209.452v81.234c0 63.836-52.364 116.062-116.367 116.062v0zM93.1 531.114c0-63.828 52.363-116.052 116.361-116.052s116.361 52.225 116.361 116.052c0 63.828-52.364 116.053-116.361 116.053s-116.361-52.225-116.361-116.053zM209.461 600.748c38.4 0 69.818-31.335 69.818-69.633s-31.418-69.633-69.818-69.633c-38.4 0-69.818 31.335-69.818 69.633s31.418 69.633 69.818 69.633zM209.454 229.373h-162.903v34.816c0 38.298 31.418 69.635 69.818 69.635h2.33c25.597-23.214 55.854-34.819 90.763-34.819v46.421c-25.597 0-47.712 9.288-65.166 27.853l-6.982 6.971h-20.946c-64.005 0-116.368-52.225-116.368-116.062v-81.234h209.454v46.418z" />
<glyph unicode="&#xe91b;" glyph-name="tech-icon" d="M318.33 633.065h399.44v-399.44h-399.44v399.44zM891.261 783.522c0 13.358-10.707 25.059-24.073 25.059h-139.335v117.010h-48.417v-117.010h-72.626v117.010h-48.417v-117.010h-82.715v117.010h-48.417v-117.010h-82.712v117.010h-48.417v-117.010h-128.407c-13.675-0.346-24.648-11.384-24.915-25.059v-140.368h-127.095v-48.417h127.095v-70.609h-127.095v-48.417h127.095v-82.712h-127.095v-48.417h127.095v-82.715h-127.095v-48.417h127.095v-129.394c0-13.372 11.542-23.928 24.915-23.928h128.407v-119.024h48.417v119.024h82.712v-119.024h48.417v119.024h82.715v-119.024h48.417v119.024h72.626v-119.024h48.417v119.024h139.335c6.378-0.058 12.508 2.435 17.034 6.932 4.523 4.497 7.059 10.621 7.039 16.996v129.394h117.010v48.417h-117.010v82.715h117.010v48.417h-117.010v82.712h117.010v48.417h-117.010v70.609h117.010v48.417h-117.010v140.368zM766.184 209.412c0-13.374-10.837-24.209-24.209-24.209h-447.858c-13.372 0-24.206 10.834-24.206 24.209v447.855c0 13.372 10.834 24.209 24.206 24.209h447.858c13.372 0 24.209-10.837 24.209-24.209v-447.855z" />
<glyph unicode="&#xe91c;" glyph-name="testimonial-icon" d="M944.702 176.406c51.926 62.037 79.298 135.257 79.298 212.502 0 199.781-187.299 362.302-417.503 362.302-28.276 0-56.396-2.429-83.63-7.245-13.134-2.311-21.82-14.547-19.443-27.292 2.373-12.745 14.897-21.114 28.075-18.916 24.367 4.321 49.606 6.498 74.988 6.498 203.567 0 369.205-141.446 369.205-315.343 0-69.472-25.974-135.386-75.122-190.557-4.813-5.409-6.834-12.653-5.463-19.719l22.528-116.313-120.854 39.838c-5.093 1.67-10.623 1.625-15.712-0.062-43.177-14.639-128.045-28.458-174.601-28.458-203.568 0-369.19 141.428-369.19 315.285 0 12.965-10.815 23.476-24.151 23.476s-24.151-10.511-24.151-23.476c0-199.76 187.26-362.229 417.483-362.229 49.824 0 132.35 13.009 182.463 28.472l152.3-50.221c2.542-0.837 5.173-1.242 7.773-1.242 5.734 0 11.366 1.99 15.841 5.739 6.469 5.476 9.492 13.895 7.885 22.078l-28.022 144.883zM338.819 432.926c3.533-1.815 7.39-2.681 11.232-2.681 4.998 0 9.989 1.508 14.19 4.474 7.447 5.27 11.167 14.156 9.616 22.971l-21.643 122.544 91.641 86.827c6.586 6.247 8.941 15.573 6.109 24.076-2.849 8.488-10.396 14.694-19.501 15.992l-126.606 17.869-56.66 111.537c-4.072 8.013-12.481 13.088-21.666 13.088-9.2 0-17.594-5.068-21.666-13.088l-56.625-111.551-126.549-17.869c-9.106-1.284-16.675-7.49-19.504-15.992-2.851-8.502-0.474-17.827 6.118-24.076l91.605-86.827-21.616-122.551c-1.573-8.795 2.147-17.716 9.594-22.951 7.454-5.256 17.3-5.961 25.458-1.794l113.198 57.852 113.274-57.85zM133.156 496.626l15.49 87.839c1.343 7.623-1.235 15.398-6.944 20.795l-65.652 62.221 90.707 12.802c7.885 1.124 14.672 5.926 18.204 12.844l40.603 79.98 40.603-79.98c3.533-6.917 10.341-11.72 18.19-12.844l90.735-12.802-65.674-62.221c-5.681-5.403-8.294-13.172-6.945-20.795l15.498-87.839-81.199 41.455c-3.504 1.794-7.368 2.694-11.231 2.694-3.871 0-7.713-0.9-11.231-2.694l-81.155-41.455zM786.628 535.624h-359.629c-13.35 0-24.151-10.499-24.151-23.475s10.801-23.475 24.151-23.475h359.629c13.352 0 24.153 10.498 24.153 23.475s-10.801 23.475-24.153 23.475v0zM810.781 390.324c0 12.974-10.801 23.474-24.153 23.474h-359.629c-13.35 0-24.151-10.5-24.151-23.474 0-12.991 10.801-23.476 24.151-23.476h359.629c13.352-0.009 24.153 10.485 24.153 23.476zM426.999 292.015c-13.35 0-24.151-10.498-24.151-23.49 0-12.96 10.801-23.476 24.151-23.476h145.537c13.348 0 24.149 10.512 24.149 23.476 0 12.991-10.801 23.49-24.149 23.49h-145.537z" />
<glyph unicode="&#xe91d;" glyph-name="user-icon" d="M184.451 284.884c41.608 41.61 98.041 64.983 156.883 64.983h341.331c58.844 0 115.277-23.373 156.887-64.983 41.605-41.61 64.983-98.043 64.983-156.882v-85.335c0-28.278-22.922-51.2-51.2-51.2s-51.2 22.922-51.2 51.2v85.335c0 31.683-12.59 62.070-34.99 84.475-22.405 22.405-52.792 34.99-84.48 34.99h-341.331c-31.685 0-62.071-12.585-84.476-34.99s-34.991-52.792-34.991-84.475v-85.335c0-28.278-22.923-51.2-51.2-51.2s-51.2 22.922-51.2 51.2v85.335c0 58.839 23.375 115.272 64.984 156.882zM511.999 759.467c-65.979 0-119.466-53.487-119.466-119.466s53.487-119.467 119.466-119.467c65.982 0 119.465 53.487 119.465 119.467s-53.484 119.466-119.465 119.466zM290.133 640.001c0 122.533 99.333 221.866 221.866 221.866s221.865-99.333 221.865-221.866-99.333-221.869-221.865-221.869c-122.533 0-221.866 99.335-221.866 221.869z" />
<glyph unicode="&#xe91e;" glyph-name="ux-ui-design-icon" d="M24.82 642.629l465.88-211.341c13.601-6.179 28.979-6.179 42.58 0l465.879 211.341c33.101 15.019 33.101 65.039 0 80.060l-465.859 211.359c-6.682 3.054-13.943 4.635-21.29 4.635s-14.608-1.581-21.29-4.635l-465.901-211.341c-33.1-15.019-33.1-65.059 0-80.079zM999.18 466.069l-116.179 52.66-323.281-146.54c-15.12-6.861-31.18-10.341-47.72-10.341s-32.58 3.48-47.72 10.341l-323.259 146.54-116.2-52.66c-33.1-15.001-33.1-65.002 0-80l465.88-211.18c13.601-6.161 28.979-6.161 42.58 0l465.9 211.18c33.101 14.999 33.101 65 0 80v0zM999.18 210.467l-115.74 52.46-323.72-146.739c-15.12-6.861-31.18-10.341-47.72-10.341s-32.58 3.48-47.72 10.341l-323.699 146.739-115.76-52.46c-33.1-14.999-33.1-65 0-79.999l465.88-211.18c13.601-6.161 28.979-6.161 42.58 0l465.9 211.18c33.101 14.999 33.101 65 0 79.999v0z" />
</font>
</defs>
</svg>
