<svg width="376" height="105" viewBox="0 0 376 105" fill="none" xmlns="http://www.w3.org/2000/svg">
<g clip-path="url(#clip0_470_842)">
<path d="M12.0999 0.0665283H365.017C370.585 0.0665283 375.1 4.58099 375.1 10.1499V94.8499C375.1 100.419 370.585 104.933 365.017 104.933H12.0999V0.0665283Z" fill="#2196F3"/>
<path d="M-26.2169 103.925L22.183 52.5003L86.3726 112.132L34.4123 168.064L-26.2169 103.925Z" fill="url(#paint0_linear_470_842)"/>
</g>
<path d="M179.322 69.3034V81H172.304C167.303 81 163.404 79.79 160.607 77.37C157.811 74.8963 156.413 70.8898 156.413 65.3507V47.4427H150.927V35.988H156.413V25.0174H170.207V35.988H179.241V47.4427H170.207V65.512C170.207 66.8565 170.529 67.8245 171.175 68.416C171.82 69.0076 172.895 69.3034 174.401 69.3034H179.322Z" fill="white"/>
<path d="M229.436 57.768C229.436 59.0587 229.355 60.4031 229.194 61.8014H197.976C198.191 64.5978 199.079 66.7489 200.638 68.2547C202.251 69.7067 204.214 70.4327 206.527 70.4327C209.969 70.4327 212.362 68.9807 213.706 66.0767H228.387C227.635 69.0345 226.263 71.6965 224.273 74.0627C222.337 76.4289 219.891 78.2843 216.933 79.6287C213.975 80.9731 210.668 81.6454 207.011 81.6454C202.601 81.6454 198.675 80.7043 195.233 78.822C191.792 76.9398 189.103 74.2509 187.167 70.7554C185.231 67.2598 184.263 63.1727 184.263 58.494C184.263 53.8154 185.204 49.7283 187.086 46.2327C189.022 42.7371 191.711 40.0483 195.153 38.166C198.595 36.2838 202.547 35.3427 207.011 35.3427C211.367 35.3427 215.239 36.2569 218.627 38.0854C222.015 39.9138 224.65 42.522 226.532 45.91C228.468 49.298 229.436 53.2507 229.436 57.768ZM215.319 54.138C215.319 51.7718 214.513 49.8896 212.899 48.4914C211.286 47.0931 209.269 46.394 206.849 46.394C204.537 46.394 202.574 47.0663 200.961 48.4107C199.401 49.7551 198.433 51.6643 198.057 54.138H215.319Z" fill="white"/>
<path d="M233.97 58.494C233.97 53.8154 234.912 49.7283 236.794 46.2327C238.73 42.7371 241.392 40.0483 244.78 38.166C248.222 36.2838 252.147 35.3427 256.557 35.3427C262.204 35.3427 266.909 36.8216 270.674 39.7794C274.492 42.7371 276.993 46.9049 278.176 52.2827H263.494C262.258 48.8409 259.864 47.12 256.315 47.12C253.788 47.12 251.771 48.1149 250.265 50.1047C248.759 52.0407 248.006 54.8371 248.006 58.494C248.006 62.1509 248.759 64.9743 250.265 66.964C251.771 68.9 253.788 69.868 256.315 69.868C259.864 69.868 262.258 68.1471 263.494 64.7054H278.176C276.993 69.9756 274.492 74.1165 270.674 77.128C266.856 80.1396 262.15 81.6454 256.557 81.6454C252.147 81.6454 248.222 80.7043 244.78 78.822C241.392 76.9398 238.73 74.2509 236.794 70.7554C234.912 67.2598 233.97 63.1727 233.97 58.494Z" fill="white"/>
<path d="M313.223 35.504C318.386 35.504 322.526 37.2249 325.646 40.6667C328.765 44.0547 330.324 48.7334 330.324 54.7027V81H316.611V56.558C316.611 53.5465 315.831 51.2071 314.272 49.54C312.712 47.8729 310.615 47.0394 307.98 47.0394C305.344 47.0394 303.247 47.8729 301.688 49.54C300.128 51.2071 299.348 53.5465 299.348 56.558V81H285.554V21.3067H299.348V42.038C300.746 40.0483 302.656 38.4618 305.076 37.2787C307.496 36.0956 310.211 35.504 313.223 35.504Z" fill="white"/>
<path d="M47.4319 57.768C47.4319 59.0586 47.3512 60.4031 47.1899 61.8013H15.9719C16.187 64.5978 17.0743 66.7489 18.6339 68.2547C20.2472 69.7066 22.2101 70.4327 24.5225 70.4327C27.9643 70.4327 30.3574 68.9806 31.7019 66.0766H46.3832C45.6303 69.0344 44.259 71.6964 42.2692 74.0626C40.3332 76.4289 37.8863 78.2842 34.9285 79.6287C31.9708 80.9731 28.6634 81.6453 25.0065 81.6453C20.5968 81.6453 16.671 80.7042 13.2292 78.822C9.78743 76.9398 7.09854 74.2509 5.16254 70.7553C3.22654 67.2598 2.25854 63.1727 2.25854 58.494C2.25854 53.8153 3.19966 49.7282 5.08188 46.2327C7.01788 42.7371 9.70677 40.0482 13.1485 38.166C16.5903 36.2838 20.543 35.3427 25.0065 35.3427C29.3625 35.3427 33.2345 36.2569 36.6225 38.0853C40.0105 39.9138 42.6457 42.522 44.5279 45.91C46.4639 49.298 47.4319 53.2506 47.4319 57.768ZM33.3152 54.138C33.3152 51.7718 32.5085 49.8895 30.8952 48.4913C29.2819 47.0931 27.2652 46.394 24.8452 46.394C22.5328 46.394 20.5699 47.0662 18.9565 48.4107C17.397 49.7551 16.429 51.6642 16.0525 54.138H33.3152Z" fill="white"/>
<path d="M81.3289 81L72.6976 68.4966L65.4376 81H50.5142L65.3569 58.01L50.1109 35.988H65.5989L74.2302 48.4107L81.4902 35.988H96.4136L81.3289 58.6553L96.8169 81H81.3289Z" fill="white"/>
<path d="M148.112 35.988L119.879 102.377H105.036L115.361 79.4673L97.0501 35.988H112.457L122.863 64.1407L133.189 35.988H148.112Z" fill="white"/>
<defs>
<linearGradient id="paint0_linear_470_842" x1="-3.79707" y1="80.4664" x2="36.3885" y2="117.947" gradientUnits="userSpaceOnUse">
<stop stop-color="#1F8FE8"/>
<stop offset="0.0001" stop-color="#1D88DC"/>
<stop offset="1" stop-color="#2196F3" stop-opacity="0"/>
</linearGradient>
<clipPath id="clip0_470_842">
<rect width="375.1" height="104.867" fill="white" transform="translate(0 0.0664673)"/>
</clipPath>
</defs>
</svg>
