<svg width="1440" height="351" viewBox="0 0 1440 351" fill="none" xmlns="http://www.w3.org/2000/svg">
<path d="M0 0.600098L34.4 14.6801C68.8 28.9201 137.6 57.0801 206.08 76.2801C274.72 95.4801 342.88 105.72 411.52 97.0801C480 88.6001 548.8 61.4001 617.28 76.9201C685.92 92.2801 754.08 150.52 822.72 162.2C891.2 173.88 960 139.32 1028.48 137.88C1097.12 136.6 1165.28 168.6 1233.92 182.68C1302.4 196.92 1371.2 193.08 1405.6 191.32L1440 189.4V352.6H1405.6C1371.2 352.6 1302.4 352.6 1233.92 352.6C1165.28 352.6 1097.12 352.6 1028.48 352.6C960 352.6 891.2 352.6 822.72 352.6C754.08 352.6 685.92 352.6 617.28 352.6C548.8 352.6 480 352.6 411.52 352.6C342.88 352.6 274.72 352.6 206.08 352.6C137.6 352.6 68.8 352.6 34.4 352.6H0V0.600098Z" fill="#2B9CED"/>
</svg>
